<svg width="512" height="512" viewBox="0 0 512 512" fill="none" xmlns="http://www.w3.org/2000/svg">
  <rect width="512" height="512" rx="96" fill="#F8F8F8"/>
  <!-- Mark centered: original viewBox 0 0 187 100, scaled to ~340px wide, centered -->
  <g transform="translate(86, 165) scale(1.818)">
    <path d="M53.6249 100.001C46.9767 100.001 40.5291 96.4695 37.1109 90.2289L2.92247 27.8669C-2.07628 18.7537 1.26667 7.3137 10.3735 2.32122C19.4867 -2.67125 30.9205 0.665428 35.9192 9.77857L70.1076 72.1406C75.1001 81.2537 71.7634 92.6875 62.6565 97.6862C59.784 99.2605 56.6856 100.007 53.6312 100.007L53.6249 100.001Z" fill="#161616"/>
    <path d="M167.33 37.6495C167.022 37.6495 166.709 37.6495 166.401 37.6244C166.094 37.6119 165.787 37.5868 165.479 37.5554C165.172 37.5241 164.865 37.4864 164.564 37.4425C164.256 37.3986 163.955 37.3422 163.654 37.2794C163.353 37.223 163.052 37.154 162.751 37.0787C162.456 37.0035 162.155 36.9219 161.867 36.8279C161.572 36.7401 161.277 36.646 160.989 36.5394C160.706 36.439 160.412 36.3261 160.129 36.2069C159.847 36.094 159.565 35.9623 159.289 35.8369C159.013 35.7052 158.737 35.5672 158.467 35.4229C158.198 35.2787 157.928 35.1282 157.665 34.9714C157.401 34.8146 157.138 34.6452 156.887 34.4759C156.63 34.3065 156.372 34.1309 156.128 33.949C155.883 33.7672 155.639 33.5727 155.4 33.3783C155.162 33.1839 154.924 32.9832 154.698 32.7762C154.466 32.5692 154.24 32.356 154.027 32.1364C153.807 31.9169 153.594 31.6911 153.387 31.4653C153.18 31.2396 152.973 31.0012 152.779 30.7629C152.591 30.5246 152.396 30.2799 152.214 30.0353C152.032 29.7907 151.857 29.5336 151.687 29.2764C151.518 29.0256 151.349 28.7621 151.192 28.4987C151.035 28.2353 150.885 27.9656 150.74 27.6959C150.596 27.4262 150.458 27.1502 150.326 26.8743C150.195 26.5983 150.069 26.3098 149.956 26.0276C149.837 25.7453 149.724 25.4568 149.624 25.1746C149.517 24.8861 149.423 24.5913 149.335 24.2965C149.241 24.0017 149.16 23.7069 149.084 23.4122C149.009 23.1111 148.94 22.8101 148.884 22.509C148.821 22.2079 148.765 21.9069 148.721 21.5996C148.677 21.2985 148.639 20.9912 148.608 20.6839C148.576 20.3765 148.551 20.0692 148.539 19.7619C148.52 19.4546 148.514 19.141 148.514 18.8336C148.514 18.5263 148.52 18.2127 148.539 17.9054C148.551 17.5981 148.576 17.2907 148.608 16.9834C148.639 16.6761 148.677 16.3688 148.721 16.0677C148.765 15.7604 148.821 15.4593 148.884 15.1583C148.94 14.8572 149.009 14.5562 149.084 14.2551C149.16 13.9603 149.241 13.6656 149.335 13.3708C149.423 13.076 149.517 12.7812 149.624 12.4927C149.724 12.2105 149.837 11.9219 149.956 11.6334C150.069 11.3512 150.195 11.069 150.326 10.793C150.458 10.517 150.596 10.2411 150.74 9.97137C150.885 9.70168 151.035 9.43198 151.192 9.16856C151.349 8.90514 151.518 8.64172 151.687 8.39084C151.857 8.13369 152.032 7.87654 152.214 7.63193C152.396 7.38733 152.591 7.14272 152.779 6.90439C152.973 6.66605 153.18 6.42772 153.387 6.20193C153.594 5.96987 153.807 5.74408 154.027 5.53083C154.24 5.31131 154.466 5.09806 154.698 4.89109C154.924 4.68412 155.162 4.47714 155.4 4.28271C155.639 4.09455 155.883 3.90012 156.128 3.71824C156.372 3.53635 156.63 3.36073 156.887 3.19139C157.138 3.02205 157.401 2.85271 157.665 2.69591C157.928 2.53911 158.198 2.38858 158.467 2.24433C158.737 2.10007 159.013 1.96209 159.289 1.83038C159.565 1.69867 159.847 1.57323 160.129 1.46033C160.412 1.34117 160.706 1.22827 160.989 1.12792C161.277 1.0213 161.572 0.927217 161.867 0.83941C162.155 0.745331 162.456 0.663795 162.751 0.588532C163.052 0.513269 163.353 0.444277 163.654 0.38783C163.955 0.32511 164.256 0.268662 164.564 0.224759C164.865 0.180855 165.172 0.143223 165.479 0.111864C165.787 0.0805039 166.094 0.0554161 166.401 0.0428722C167.016 0.00524051 167.643 0.00524051 168.258 0.0428722C168.565 0.0554161 168.872 0.0805039 169.18 0.111864C169.487 0.143223 169.794 0.180855 170.096 0.224759C170.397 0.268662 170.704 0.32511 171.005 0.38783C171.306 0.444277 171.607 0.513269 171.908 0.588532C172.203 0.663795 172.498 0.745331 172.792 0.83941C173.087 0.927217 173.382 1.0213 173.664 1.12792C173.953 1.22827 174.241 1.34117 174.524 1.46033C174.806 1.57323 175.094 1.69867 175.37 1.83038C175.646 1.96209 175.922 2.10007 176.192 2.24433C176.462 2.38858 176.731 2.53911 176.995 2.69591C177.258 2.85271 177.522 3.02205 177.772 3.19139C178.03 3.36073 178.287 3.53635 178.531 3.71824C178.776 3.90012 179.021 4.09455 179.259 4.28271C179.497 4.47714 179.736 4.68412 179.961 4.89109C180.193 5.09806 180.419 5.31131 180.632 5.53083C180.852 5.74408 181.065 5.96987 181.272 6.20193C181.479 6.42772 181.68 6.66605 181.874 6.90439C182.069 7.14272 182.263 7.38733 182.445 7.63193C182.627 7.87654 182.802 8.13369 182.972 8.39084C183.141 8.64172 183.311 8.90514 183.467 9.16856C183.624 9.43198 183.775 9.70168 183.919 9.97137C184.063 10.2411 184.201 10.517 184.333 10.793C184.465 11.069 184.59 11.3512 184.703 11.6334C184.822 11.9219 184.935 12.2105 185.035 12.4927C185.142 12.7812 185.236 13.076 185.324 13.3708C185.418 13.6656 185.499 13.9603 185.575 14.2551C185.65 14.5562 185.719 14.8572 185.775 15.1583C185.838 15.4593 185.895 15.7604 185.938 16.0677C185.982 16.3688 186.02 16.6761 186.051 16.9834C186.083 17.2907 186.108 17.5981 186.12 17.9054C186.139 18.2127 186.145 18.5263 186.145 18.8336C186.145 19.141 186.145 19.4546 186.12 19.7619C186.108 20.0692 186.083 20.3765 186.051 20.6839C186.02 20.9912 185.982 21.2985 185.938 21.5996C185.895 21.9069 185.838 22.2079 185.775 22.509C185.719 22.8101 185.65 23.1111 185.575 23.4122C185.499 23.7069 185.418 24.0017 185.324 24.2965C185.236 24.5913 185.142 24.8861 185.035 25.1746C184.935 25.4568 184.822 25.7453 184.703 26.0276C184.59 26.3098 184.465 26.5983 184.333 26.8743C184.201 27.1502 184.063 27.4262 183.919 27.6959C183.775 27.9656 183.624 28.2353 183.467 28.4987C183.311 28.7621 183.141 29.0256 182.972 29.2764C182.802 29.5336 182.627 29.7907 182.445 30.0353C182.263 30.2799 182.069 30.5246 181.874 30.7629C181.68 31.0012 181.479 31.2396 181.272 31.4653C181.065 31.6911 180.852 31.9169 180.632 32.1364C180.419 32.356 180.193 32.5692 179.961 32.7762C179.736 32.9832 179.497 33.1839 179.259 33.3783C179.021 33.5727 178.776 33.7672 178.531 33.949C178.287 34.1309 178.03 34.3065 177.772 34.4759C177.522 34.6452 177.258 34.8146 176.995 34.9714C176.731 35.1282 176.462 35.2787 176.192 35.4229C175.922 35.5672 175.646 35.7052 175.37 35.8369C175.094 35.9623 174.806 36.094 174.524 36.2069C174.241 36.3261 173.953 36.439 173.664 36.5394C173.382 36.646 173.087 36.7401 172.792 36.8279C172.498 36.9219 172.203 37.0035 171.908 37.0787C171.607 37.154 171.306 37.223 171.005 37.2794C170.704 37.3422 170.397 37.3986 170.096 37.4425C169.794 37.4864 169.487 37.5241 169.18 37.5554C168.872 37.5868 168.565 37.6119 168.258 37.6244C167.951 37.6432 167.637 37.6495 167.33 37.6495Z" fill="#161616"/>
    <path d="M110.487 68.8277C103.839 68.8277 97.3911 65.2966 93.9728 59.056L76.8818 27.8781C71.8893 18.765 75.226 7.3312 84.3329 2.33245C93.446 -2.66002 104.88 0.676659 109.879 9.7898L126.97 40.9677C131.962 50.0808 128.625 61.5146 119.519 66.5133C116.646 68.0876 113.548 68.834 110.493 68.834L110.487 68.8277Z" fill="#161616"/>
  </g>
</svg>
